<?xml version="1.0" encoding="UTF-8" standalone="no"?>
<svg width="98px" height="98px" viewBox="0 0 98 98" version="1.1" xmlns="http://www.w3.org/2000/svg" xmlns:xlink="http://www.w3.org/1999/xlink">
    <!-- Generator: Sketch 3.8.2 (29753) - http://www.bohemiancoding.com/sketch -->
    <title>插件icon copy 8</title>
    <desc>Created with Sketch.</desc>
    <defs></defs>
    <g id="Page-1" stroke="none" stroke-width="1" fill="none" fill-rule="evenodd">
        <g id="插件icon-copy-8" fill="#6A8BBE">
            <path d="M18.7652616,29.2614686 L79.2347384,29.2614686 L72.6940762,18.1281988 L25.263726,18.1281988 L18.7652616,29.2614686 L18.7652616,29.2614686 Z M74.2342966,12.4577088 L74.2342966,12.4577088 C75.2470443,12.3746247 76.3230887,12.8939003 76.8716604,13.8285965 L86.3450711,30.0092255 C86.6615548,30.5908143 86.7881482,31.193174 86.7037526,31.7747627 C86.7459504,31.8786179 86.7459504,32.003244 86.7459504,32.1278702 L86.7459504,82.6637759 C86.7459504,84.2631449 85.437818,85.5509485 83.8343008,85.5509485 L14.1867981,85.5509485 C12.5832809,85.5509485 11.2540496,84.2631449 11.2540496,82.6637759 L11.2540496,32.1278702 C11.2540496,32.003244 11.2540496,31.8786179 11.2751485,31.7747627 C11.2118518,31.193174 11.3173463,30.5908143 11.6760278,30.0092255 L21.1072407,13.8285965 C21.6769113,12.8939003 22.7107579,12.3746247 23.7657034,12.4577088 L74.2342966,12.4577088 L74.2342966,12.4577088 Z" id="Fill-1"></path>
        </g>
    </g>
</svg>